<svg id="Layer_1" data-name="Layer 1" xmlns="http://www.w3.org/2000/svg" viewBox="0 0 380.67 262.58"><defs><style>.cls-1,.cls-2{fill:#3f575a;}.cls-2{font-size:40px;font-family:Georgia-Bold, Georgia;font-weight:700;}</style></defs><path class="cls-1" d="M189.5,88.49c33.2,0,63.66,8,87.45,21.43.16-2.23.26-4.47.26-6.74a94.4,94.4,0,1,0-188.79,0,95.37,95.37,0,0,0,1.15,14.73C114.69,99.8,150.15,88.49,189.5,88.49Z"/><path class="cls-1" d="M182.14,92.61a152.44,152.44,0,0,0-91.21,32.44c.4,1.77.86,3.52,1.36,5.25,25.77-19.35,58.05-29.87,89.85-29.12A143.79,143.79,0,0,1,270.81,134a94,94,0,0,0,3.34-12.78C247.42,102.2,214.54,91.86,182.14,92.61Z"/><path class="cls-1" d="M182.14,113.32a131.56,131.56,0,0,0-83.76,32.51q1.09,2.16,2.29,4.28a124.81,124.81,0,0,1,81.47-28.21,122.84,122.84,0,0,1,79.46,31.6,94.32,94.32,0,0,0,6-11.24A133.49,133.49,0,0,0,182.14,113.32Z"/><path class="cls-1" d="M182.14,134a110.6,110.6,0,0,0-72.34,29.39q1.47,1.78,3,3.5a104,104,0,0,1,69.32-24.31,102,102,0,0,1,66.59,27.18,95.87,95.87,0,0,0,8.19-9.47A112.58,112.58,0,0,0,182.14,134Z"/><path class="cls-1" d="M124.82,178c1.28,1,2.58,2,3.92,2.89,15.22-11.94,34.17-18.75,53.4-17.54,19,.17,36.53,7.78,50.15,19.7a94.62,94.62,0,0,0,10.36-7.63,91.7,91.7,0,0,0-60.51-20.65C160.35,154.89,140.18,163.93,124.82,178Z"/><path class="cls-1" d="M182.14,175.48a65.21,65.21,0,0,0-38.64,13.79c2,.9,4,1.74,6,2.5a57.54,57.54,0,0,1,32.62-7.71A56.3,56.3,0,0,1,211.19,193a93.41,93.41,0,0,0,13.05-5.38C211.84,179.1,197.05,174.44,182.14,175.48Z"/><path class="cls-1" d="M180.37,87.22a62,62,0,0,1-.83,10.06c2.85,0,5.66.15,8.46.3,0-.19-.05-.37-.07-.56-1.57-17.56,4.18-33.19,13.66-40.07C194.71,59,189,64.42,185.27,71.72c-3.73-12.12-12-21.11-22.08-23.18C173.25,54.54,180.37,69.59,180.37,87.22Z"/><path class="cls-1" d="M151.62,60.77A8.94,8.94,0,0,0,153.35,63c4.27,4,11.51,3.23,16.47-1.61a9.18,9.18,0,0,0-1.73-2.22C163.82,55.16,156.58,55.93,151.62,60.77Z"/><path class="cls-1" d="M212.48,61.11a11.21,11.21,0,0,1,1.13,1.76c-2.14,2.67-5.89,2.25-8.54-1.07a10.11,10.11,0,0,1-1.14-1.75C206.08,57.37,209.82,57.8,212.48,61.11Z"/><path class="cls-1" d="M194.13,75a9.12,9.12,0,0,0,2.33,1.58c5.3,2.48,11.95-.48,15.18-6.61a9.12,9.12,0,0,0-2.33-1.58C204,65.93,197.36,68.89,194.13,75Z"/><path class="cls-1" d="M202,40.35a9.21,9.21,0,0,0-2.4.94c-4.67,2.64-6.17,8.87-3.53,14.13a9.08,9.08,0,0,0,2.41-.92C203.16,51.85,204.67,45.63,202,40.35Z"/><path class="cls-1" d="M220.9,52.87a8.11,8.11,0,0,0,2.27.37c4.81,0,8.76-4.21,9.08-9.61a7.87,7.87,0,0,0-2.27-.37C225.17,43.21,221.22,47.47,220.9,52.87Z"/><path class="cls-1" d="M181.13,15.79a9.1,9.1,0,0,0-2.63,1c-5.09,2.89-6.53,10-3.4,16.21a9.42,9.42,0,0,0,2.63-1C182.82,29.11,184.26,22,181.13,15.79Z"/><path class="cls-1" d="M190.61,38.29a11.42,11.42,0,0,0-3.26,1.22c-6.3,3.57-8.08,12.4-4.21,20.05a11.47,11.47,0,0,0,3.26-1.21C192.71,54.78,194.49,45.94,190.61,38.29Z"/><path class="cls-1" d="M207.19,20a9,9,0,0,0-2.58-.85c-5.59-.91-11,3.6-12.38,10.16a9.16,9.16,0,0,0,2.59.85C200.4,31.05,205.81,26.54,207.19,20Z"/><path class="cls-1" d="M214.59,58.29a6,6,0,0,1-.41-1.72c3.84-1.88,7.94-.8,9.31,2.54a6,6,0,0,1,.42,1.71C220.07,62.7,216,61.63,214.59,58.29Z"/><path class="cls-1" d="M231.62,51.44a4.28,4.28,0,0,1-.29-1.21C234,48.9,237,49.66,237.92,52a4.64,4.64,0,0,1,.29,1.21C235.49,54.56,232.59,53.8,231.62,51.44Z"/><path class="cls-1" d="M210.58,29.68a6,6,0,0,1,1-1.48c4,1.52,6,5.25,4.52,8.54a6.46,6.46,0,0,1-1,1.47C211.1,36.69,209.08,33,210.58,29.68Z"/><path class="cls-1" d="M194.77,37.71a6.08,6.08,0,0,1-1.47-1c1.54-4,5.29-6,8.57-4.46a6.23,6.23,0,0,1,1.46,1C201.79,37.24,198,39.23,194.77,37.71Z"/><path class="cls-1" d="M140.36,28.84a6.17,6.17,0,0,1,.34-1.74c4.27-.11,7.56,2.58,7.42,6.19a6.33,6.33,0,0,1-.35,1.73C143.5,35.13,140.22,32.45,140.36,28.84Z"/><path class="cls-1" d="M131,35.24a6.71,6.71,0,0,1-.82-1.57c3.27-2.76,7.52-2.71,9.66.2a6.28,6.28,0,0,1,.82,1.56C137.39,38.19,133.15,38.14,131,35.24Z"/><path class="cls-1" d="M141.15,58.72a6.12,6.12,0,0,1-1.22-1.27c2.33-3.58,6.41-4.75,9.3-2.58a6.12,6.12,0,0,1,1.23,1.26C148.12,59.71,144,60.88,141.15,58.72Z"/><path class="cls-1" d="M122.22,56.93A6.22,6.22,0,0,1,121,55.66c2.34-3.57,6.42-4.74,9.31-2.58a6.17,6.17,0,0,1,1.23,1.27C129.18,57.92,125.1,59.1,122.22,56.93Z"/><path class="cls-1" d="M162.93,73.66a6.15,6.15,0,0,1-1.67-.59c.5-4.24,3.62-7.11,7.17-6.46a6.25,6.25,0,0,1,1.67.58C169.6,71.43,166.48,74.3,162.93,73.66Z"/><path class="cls-1" d="M121.51,43.1a6,6,0,0,1-.88-1.53c3.16-2.87,7.41-3,9.65-.15a6,6,0,0,1,.88,1.53C128,45.82,123.75,45.93,121.51,43.1Z"/><path class="cls-1" d="M221.05,35.78a6.18,6.18,0,0,1-1.66-.58c.49-4.25,3.61-7.12,7.17-6.47a6.25,6.25,0,0,1,1.67.58C227.73,33.56,224.61,36.43,221.05,35.78Z"/><path class="cls-1" d="M244.66,44.9a5.76,5.76,0,0,1,.17,1.76c-4.05,1.35-8-.28-8.88-3.77a6.1,6.1,0,0,1-.18-1.75C239.82,39.78,243.75,41.41,244.66,44.9Z"/><path class="cls-1" d="M126.34,76.86a6.21,6.21,0,0,1-1.66-.59c.51-4.24,3.65-7.1,7.2-6.43a6.09,6.09,0,0,1,1.66.59C133,74.67,129.89,77.53,126.34,76.86Z"/><path class="cls-1" d="M160.69,21.66a6.11,6.11,0,0,1,.1-1.76c4.21-.71,7.84,1.49,8.21,5.08a6.11,6.11,0,0,1-.1,1.76C164.69,27.45,161.06,25.25,160.69,21.66Z"/><path class="cls-1" d="M190.3,17a6.49,6.49,0,0,1,1.76,0c.86,4.19-1.21,7.89-4.79,8.38a5.48,5.48,0,0,1-1.76,0C184.65,21.17,186.72,17.47,190.3,17Z"/><path class="cls-1" d="M222.31,42.24A11.69,11.69,0,0,0,219,41.07c-7.12-1.32-14.17,4.29-16.14,12.63a11.89,11.89,0,0,0,3.28,1.18C213.3,56.2,220.35,50.59,222.31,42.24Z"/><path class="cls-1" d="M138.88,43.41a11.74,11.74,0,0,0,1.4,3.19c3.92,6.09,12.84,7.38,20.26,3.08a11.16,11.16,0,0,0-1.4-3.19C155.23,40.4,146.31,39.11,138.88,43.41Z"/><path class="cls-1" d="M169.52,32.1A9.58,9.58,0,0,0,168,34.45c-2.4,5.33.65,11.94,6.83,15.09a9.54,9.54,0,0,0,1.54-2.35C178.75,41.85,175.69,35.25,169.52,32.1Z"/><path class="cls-1" d="M154.51,23.52A9.15,9.15,0,0,0,153,25.88c-2.41,5.33.64,11.93,6.82,15.08a9.64,9.64,0,0,0,1.54-2.35C163.74,33.28,160.68,26.67,154.51,23.52Z"/><path class="cls-1" d="M137.73,48.81a2.68,2.68,0,1,1-2.68-2.68A2.68,2.68,0,0,1,137.73,48.81Z"/><path class="cls-1" d="M235.83,36.48a2.69,2.69,0,1,1-2.68-2.68A2.69,2.69,0,0,1,235.83,36.48Z"/><path class="cls-1" d="M234,61.5a2.68,2.68,0,1,1-2.68-2.68A2.68,2.68,0,0,1,234,61.5Z"/><path class="cls-1" d="M149.35,67.93a2.68,2.68,0,1,1-2.68-2.68A2.68,2.68,0,0,1,149.35,67.93Z"/><path class="cls-1" d="M173.65,19A2.68,2.68,0,1,1,171,16.29,2.7,2.7,0,0,1,173.65,19Z"/><path class="cls-1" d="M209.74,37.91a2.68,2.68,0,1,1-2.68-2.68A2.69,2.69,0,0,1,209.74,37.91Z"/><path class="cls-1" d="M220.46,67.93a2.68,2.68,0,1,1-2.68-2.68A2.68,2.68,0,0,1,220.46,67.93Z"/><path class="cls-1" d="M176.15,74.36a2.68,2.68,0,1,1-2.68-2.68A2.68,2.68,0,0,1,176.15,74.36Z"/><path class="cls-1" d="M220.82,25.76a2.68,2.68,0,1,1-2.68-2.68A2.68,2.68,0,0,1,220.82,25.76Z"/><path class="cls-1" d="M186.87,34a2.68,2.68,0,1,1-2.68-2.68A2.68,2.68,0,0,1,186.87,34Z"/><path class="cls-1" d="M183.44,100.82c-32.34-.73-65.17,9.57-91.87,28.56a92.58,92.58,0,0,0,4.34,12,143.77,143.77,0,0,1,87.53-31.94c30.7-.73,61.83,9.08,87.14,27.17.62-1.66,1.22-3.34,1.75-5A152.45,152.45,0,0,0,183.44,100.82Z"/><path class="cls-1" d="M183.44,121.54a133.47,133.47,0,0,0-83.66,27.58,95.26,95.26,0,0,0,6.72,10.41,122.88,122.88,0,0,1,76.94-29.41A124.74,124.74,0,0,1,261,155.27c.92-1.38,1.79-2.79,2.63-4.22A131.57,131.57,0,0,0,183.44,121.54Z"/><path class="cls-1" d="M183.44,142.26A112.51,112.51,0,0,0,111.81,166a96.15,96.15,0,0,0,8.82,8.66,102,102,0,0,1,62.81-23.84,103.85,103.85,0,0,1,64.28,20.37c1.19-1.16,2.36-2.34,3.49-3.55A110.66,110.66,0,0,0,183.44,142.26Z"/><path class="cls-1" d="M183.44,163a91.67,91.67,0,0,0-55.89,17.14,93.44,93.44,0,0,0,11.12,6.81,76.61,76.61,0,0,1,44.77-15.37c16.57-1.05,32.93,3.88,46.88,12.9,1.63-1,3.23-2,4.79-3C220.6,170.14,202.66,163.09,183.44,163Z"/><path class="cls-1" d="M183.44,183.7a65,65,0,0,0-34.81,7.73A95.18,95.18,0,0,0,164.81,196a54.78,54.78,0,0,1,18.63-3.7,54.79,54.79,0,0,1,21.16,2.65,92,92,0,0,0,9.37-2.79A63.83,63.83,0,0,0,183.44,183.7Z"/><text class="cls-2" transform="translate(108.25 241.12)">haukai</text></svg>