<svg id="Layer_1" data-name="Layer 1" xmlns="http://www.w3.org/2000/svg" viewBox="0 0 302.98 270.45"><defs><style>.cls-1{fill:#87a8ab;}.cls-2{font-size:40px;fill:#3f575a;font-family:Georgia-Bold, Georgia;font-weight:700;}</style></defs><path class="cls-1" d="M163.73,96.15c33.2,0,63.65,8,87.44,21.43.16-2.23.27-4.47.27-6.74A94.4,94.4,0,1,0,63.8,125.57C88.91,107.46,124.38,96.15,163.73,96.15Z"/><path class="cls-1" d="M156.36,100.27a152.54,152.54,0,0,0-91.21,32.45q.61,2.66,1.36,5.24c25.77-19.35,58.06-29.87,89.85-29.11A143.78,143.78,0,0,1,245,141.69a92.45,92.45,0,0,0,3.34-12.77C221.65,109.86,188.76,99.53,156.36,100.27Z"/><path class="cls-1" d="M156.36,121a131.47,131.47,0,0,0-83.75,32.5c.72,1.45,1.49,2.88,2.28,4.28a124.83,124.83,0,0,1,81.47-28.21,122.82,122.82,0,0,1,79.46,31.6,92.16,92.16,0,0,0,6-11.24A133.4,133.4,0,0,0,156.36,121Z"/><path class="cls-1" d="M156.36,141.71A110.57,110.57,0,0,0,84,171.1c1,1.19,2,2.35,3,3.49a104,104,0,0,1,69.31-24.31A102,102,0,0,1,223,177.46a94.74,94.74,0,0,0,8.19-9.47A112.57,112.57,0,0,0,156.36,141.71Z"/><path class="cls-1" d="M99,185.66q1.92,1.5,3.92,2.88c15.22-11.94,34.17-18.75,53.4-17.53,19,.16,36.53,7.78,50.15,19.69a92.53,92.53,0,0,0,10.37-7.63,91.79,91.79,0,0,0-60.52-20.64C134.57,162.55,114.4,171.59,99,185.66Z"/><path class="cls-1" d="M156.36,183.15a65.22,65.22,0,0,0-38.64,13.78c2,.9,4,1.75,6,2.51a57.51,57.51,0,0,1,32.61-7.72,56.38,56.38,0,0,1,29.06,8.95,94,94,0,0,0,13.05-5.39C186.07,186.77,171.27,182.11,156.36,183.15Z"/><path class="cls-1" d="M154.6,94.89a63.09,63.09,0,0,1-.83,10q4.26.07,8.45.3c0-.19-.05-.37-.06-.56-1.58-17.56,4.18-33.19,13.65-40.06-6.87,2.07-12.6,7.46-16.32,14.77-3.73-12.12-12-21.12-22.07-23.18C147.47,62.21,154.6,77.26,154.6,94.89Z"/><path class="cls-1" d="M125.84,68.43a9.43,9.43,0,0,0,1.73,2.22c4.28,4,11.52,3.22,16.48-1.62a9.43,9.43,0,0,0-1.73-2.22C138,62.83,130.8,63.59,125.84,68.43Z"/><path class="cls-1" d="M186.7,68.78a10.14,10.14,0,0,1,1.13,1.76c-2.14,2.67-5.88,2.24-8.54-1.08a10.06,10.06,0,0,1-1.13-1.75C180.3,65,184.05,65.47,186.7,68.78Z"/><path class="cls-1" d="M168.36,82.69a9.09,9.09,0,0,0,2.33,1.57c5.3,2.48,11.95-.48,15.17-6.61a9.15,9.15,0,0,0-2.32-1.58C178.24,73.59,171.59,76.56,168.36,82.69Z"/><path class="cls-1" d="M176.25,48a9.26,9.26,0,0,0-2.4.93c-4.67,2.65-6.18,8.87-3.53,14.14a9.4,9.4,0,0,0,2.4-.93C177.39,59.51,178.89,53.29,176.25,48Z"/><path class="cls-1" d="M195.12,60.53a7.88,7.88,0,0,0,2.28.37c4.8.05,8.76-4.21,9.08-9.61a7.55,7.55,0,0,0-2.28-.36C199.4,50.88,195.44,55.13,195.12,60.53Z"/><path class="cls-1" d="M155.35,23.45a10,10,0,0,0-2.63,1c-5.09,2.9-6.53,10-3.4,16.21a9.6,9.6,0,0,0,2.64-1C157.05,36.77,158.48,29.63,155.35,23.45Z"/><path class="cls-1" d="M164.84,46a11.17,11.17,0,0,0-3.26,1.21c-6.3,3.57-8.09,12.4-4.21,20A11,11,0,0,0,160.63,66C166.93,62.44,168.71,53.6,164.84,46Z"/><path class="cls-1" d="M181.41,27.64a9,9,0,0,0-2.58-.85c-5.59-.91-11,3.61-12.37,10.16a8.72,8.72,0,0,0,2.58.86C174.63,38.72,180,34.2,181.41,27.64Z"/><path class="cls-1" d="M188.81,66a6.37,6.37,0,0,1-.41-1.71c3.84-1.88,7.95-.81,9.32,2.53a6.37,6.37,0,0,1,.41,1.71C194.29,70.37,190.19,69.3,188.81,66Z"/><path class="cls-1" d="M205.84,59.11a5,5,0,0,1-.29-1.22c2.72-1.33,5.62-.57,6.59,1.79a4.28,4.28,0,0,1,.29,1.21C209.72,62.23,206.81,61.47,205.84,59.11Z"/><path class="cls-1" d="M184.8,37.34a6,6,0,0,1,1-1.47c4,1.51,6,5.24,4.52,8.53a5.77,5.77,0,0,1-1,1.47C185.33,44.36,183.31,40.63,184.8,37.34Z"/><path class="cls-1" d="M169,45.38a5.84,5.84,0,0,1-1.47-1c1.55-4,5.29-6,8.57-4.45a6.08,6.08,0,0,1,1.47,1C176,44.9,172.26,46.9,169,45.38Z"/><path class="cls-1" d="M114.58,36.5a6,6,0,0,1,.35-1.73c4.27-.11,7.55,2.58,7.41,6.18a5.91,5.91,0,0,1-.34,1.73C117.73,42.79,114.44,40.11,114.58,36.5Z"/><path class="cls-1" d="M105.23,42.9a6,6,0,0,1-.82-1.56c3.27-2.76,7.51-2.71,9.65.19a6.29,6.29,0,0,1,.82,1.56C111.61,45.85,107.37,45.8,105.23,42.9Z"/><path class="cls-1" d="M115.38,66.38a5.92,5.92,0,0,1-1.23-1.27c2.33-3.57,6.41-4.74,9.3-2.58a5.92,5.92,0,0,1,1.23,1.27C122.35,67.37,118.27,68.55,115.38,66.38Z"/><path class="cls-1" d="M96.44,64.59a5.88,5.88,0,0,1-1.23-1.26c2.34-3.58,6.41-4.75,9.3-2.58A6.17,6.17,0,0,1,105.75,62C103.41,65.59,99.33,66.76,96.44,64.59Z"/><path class="cls-1" d="M137.15,81.32a5.92,5.92,0,0,1-1.67-.58c.5-4.25,3.62-7.11,7.18-6.46a5.86,5.86,0,0,1,1.66.58C143.83,79.1,140.7,82,137.15,81.32Z"/><path class="cls-1" d="M95.73,50.77a5.66,5.66,0,0,1-.87-1.53c3.16-2.88,7.4-3,9.65-.16a6,6,0,0,1,.87,1.54C102.22,53.48,98,53.6,95.73,50.77Z"/><path class="cls-1" d="M195.28,43.44a5.75,5.75,0,0,1-1.66-.58c.49-4.25,3.61-7.11,7.16-6.47a6,6,0,0,1,1.67.59C202,41.22,198.83,44.09,195.28,43.44Z"/><path class="cls-1" d="M218.88,52.56a6.13,6.13,0,0,1,.18,1.76c-4.06,1.35-8-.28-8.89-3.77A6.06,6.06,0,0,1,210,48.8C214.05,47.45,218,49.07,218.88,52.56Z"/><path class="cls-1" d="M100.56,84.53a6.6,6.6,0,0,1-1.66-.6c.52-4.24,3.66-7.09,7.21-6.43a5.9,5.9,0,0,1,1.66.6C107.25,82.34,104.11,85.19,100.56,84.53Z"/><path class="cls-1" d="M134.92,29.33a6.2,6.2,0,0,1,.09-1.77c4.22-.71,7.84,1.49,8.21,5.08a6.18,6.18,0,0,1-.09,1.77C138.92,35.12,135.28,32.92,134.92,29.33Z"/><path class="cls-1" d="M164.52,24.63a6.18,6.18,0,0,1,1.77,0c.86,4.18-1.21,7.88-4.79,8.38a6.18,6.18,0,0,1-1.77,0C158.88,28.83,161,25.13,164.52,24.63Z"/><path class="cls-1" d="M196.54,49.9a11.85,11.85,0,0,0-3.28-1.16c-7.12-1.33-14.17,4.28-16.13,12.63a11.49,11.49,0,0,0,3.27,1.17C187.52,63.86,194.57,58.25,196.54,49.9Z"/><path class="cls-1" d="M113.11,51.07a11.44,11.44,0,0,0,1.4,3.19c3.91,6.09,12.83,7.38,20.26,3.08a11.74,11.74,0,0,0-1.4-3.19C129.45,48.06,120.53,46.78,113.11,51.07Z"/><path class="cls-1" d="M143.74,39.77a9.19,9.19,0,0,0-1.54,2.35c-2.41,5.33.64,11.94,6.82,15.08a8.93,8.93,0,0,0,1.54-2.35C153,49.51,149.92,42.91,143.74,39.77Z"/><path class="cls-1" d="M128.73,31.19a9.36,9.36,0,0,0-1.54,2.35c-2.41,5.33.65,11.94,6.82,15.08a9.34,9.34,0,0,0,1.55-2.34C138,40.94,134.91,34.33,128.73,31.19Z"/><path class="cls-1" d="M112,56.47a2.68,2.68,0,1,1-2.68-2.67A2.69,2.69,0,0,1,112,56.47Z"/><path class="cls-1" d="M210.05,44.15a2.68,2.68,0,1,1-2.68-2.68A2.68,2.68,0,0,1,210.05,44.15Z"/><path class="cls-1" d="M208.26,69.16a2.68,2.68,0,1,1-2.68-2.68A2.68,2.68,0,0,1,208.26,69.16Z"/><path class="cls-1" d="M123.57,75.6a2.68,2.68,0,1,1-2.68-2.68A2.68,2.68,0,0,1,123.57,75.6Z"/><path class="cls-1" d="M147.87,26.64A2.68,2.68,0,1,1,145.19,24,2.68,2.68,0,0,1,147.87,26.64Z"/><path class="cls-1" d="M184,45.58a2.68,2.68,0,1,1-2.68-2.68A2.68,2.68,0,0,1,184,45.58Z"/><path class="cls-1" d="M194.68,75.6A2.68,2.68,0,1,1,192,72.92,2.68,2.68,0,0,1,194.68,75.6Z"/><path class="cls-1" d="M150.37,82a2.68,2.68,0,1,1-2.68-2.69A2.69,2.69,0,0,1,150.37,82Z"/><path class="cls-1" d="M195,33.43a2.68,2.68,0,1,1-2.68-2.69A2.68,2.68,0,0,1,195,33.43Z"/><path class="cls-1" d="M161.09,41.65A2.68,2.68,0,1,1,158.41,39,2.69,2.69,0,0,1,161.09,41.65Z"/><path class="cls-1" d="M157.66,108.49c-32.34-.74-65.17,9.56-91.87,28.55a94.24,94.24,0,0,0,4.34,12,143.8,143.8,0,0,1,87.53-31.94c30.7-.74,61.84,9.07,87.14,27.16.63-1.66,1.22-3.33,1.76-5A152.47,152.47,0,0,0,157.66,108.49Z"/><path class="cls-1" d="M157.66,129.2A133.44,133.44,0,0,0,74,156.79a93.88,93.88,0,0,0,6.73,10.41,122.81,122.81,0,0,1,76.93-29.42,124.77,124.77,0,0,1,77.57,25.15q1.36-2.07,2.63-4.22A131.58,131.58,0,0,0,157.66,129.2Z"/><path class="cls-1" d="M157.66,149.93A112.59,112.59,0,0,0,86,173.68a96.23,96.23,0,0,0,8.82,8.67,102,102,0,0,1,62.81-23.85,103.83,103.83,0,0,1,64.28,20.37c1.2-1.15,2.36-2.34,3.49-3.55A110.63,110.63,0,0,0,157.66,149.93Z"/><path class="cls-1" d="M157.66,170.65a91.53,91.53,0,0,0-55.88,17.14,93.83,93.83,0,0,0,11.11,6.81,76.64,76.64,0,0,1,44.77-15.38c16.58-1,32.94,3.88,46.89,12.91,1.62-1,3.22-2,4.79-3C194.82,177.8,176.88,170.76,157.66,170.65Z"/><path class="cls-1" d="M157.66,191.36a65,65,0,0,0-34.8,7.73A92.88,92.88,0,0,0,139,203.64a55.2,55.2,0,0,1,18.62-3.7,55.15,55.15,0,0,1,21.16,2.65,92.16,92.16,0,0,0,9.38-2.79A64,64,0,0,0,157.66,191.36Z"/><text class="cls-2" transform="translate(82.48 248.78)">haukai</text></svg>